<svg width="691" height="588" viewBox="0 0 691 588" fill="none" xmlns="http://www.w3.org/2000/svg">
<path d="M548.42 348.12H272.02V348.13L171.25 431.94V587.08L313.25 468.98H589.63V468.96L690.39 385.15V230.02L548.42 348.12Z" fill="white"/>
<path d="M509.28 287.13L610.07 203.33V54.98C610.07 54.98 563.32 8.23 555.04 0C532.63 18.68 425.03 108.16 425.03 108.16H148.62L0 231.75L1.03999 416.46L64.95 480.37L68.42 477.47L109.92 442.7V389.13L232.86 287.12H509.27L509.28 287.13ZM64.96 278.46V465.73L11.36 412.18L10.36 236.53L152.34 118.49H428.75L431.61 116.11L554.42 13.98L602.08 61.64L468.04 173.14H191.68L64.95 278.48L64.96 278.46Z" fill="white"/>
</svg>
