<svg width="1377" height="234" viewBox="0 0 1377 234" fill="none" xmlns="http://www.w3.org/2000/svg">
<path d="M417.38 143.29H385.01C377.74 143.29 374.1 139.65 374.1 132.38V39.64C374.1 35.04 372.58 31.28 369.55 28.37C366.52 25.46 362.7 24.01 358.09 24.01C353.24 24.01 349.24 25.46 346.09 28.37C342.94 31.28 341.36 35.04 341.36 39.64V149.47C341.36 156.5 343.54 162.2 347.91 166.56C352.28 170.92 357.97 173.11 365 173.11H417.37C421.73 173.11 425.31 171.72 428.1 168.93C430.89 166.15 432.28 162.57 432.28 158.2C432.28 153.83 430.88 150.26 428.1 147.47C425.31 144.69 421.74 143.29 417.37 143.29H417.38Z" fill="white"/>
<path d="M528.49 64.01C523.88 64.01 520.06 65.46 517.03 68.37C514 71.28 512.48 75.04 512.48 79.64V129.46C512.48 134.55 510.54 138.8 506.66 142.19C502.78 145.59 497.81 147.28 491.75 147.28C485.69 147.28 480.71 145.59 476.84 142.19C472.96 138.8 471.02 134.55 471.02 129.46V79.64C471.02 75.28 469.5 71.58 466.47 68.55C463.44 65.52 459.62 64 455.01 64C450.4 64 446.58 65.45 443.55 68.36C440.52 71.27 439 75.03 439 79.63V130.91C439 140.85 441.6 149.28 446.82 156.19C452.03 163.1 458.64 168.25 466.64 171.65C474.64 175.04 483.01 176.74 491.73 176.74C500.45 176.74 509.19 175.04 517.19 171.65C525.19 168.26 531.74 163.1 536.83 156.19C541.92 149.28 544.47 140.86 544.47 130.91V79.63C544.47 75.27 542.95 71.57 539.92 68.54C536.89 65.51 533.07 63.99 528.46 63.99L528.49 64.01Z" fill="white"/>
<path d="M688.57 64.01C681.78 64.01 675.23 65.41 668.93 68.19C662.62 70.98 657.29 75.04 652.93 80.37C645.66 69.46 633.77 64 617.29 64C611.23 64 605.77 65.09 600.92 67.27C596.07 69.45 592.19 72.36 589.28 76C589.03 74.55 588.31 73.09 587.1 71.64C584.19 67.76 579.95 65.82 574.37 65.82C569.52 65.82 565.58 67.22 562.55 70C559.51 72.79 558 76.13 558 80V162.56C558 166.69 559.57 170.08 562.73 172.74C565.88 175.41 569.76 176.74 574.37 176.74C578.73 176.74 582.43 175.34 585.46 172.56C588.49 169.78 590.01 166.32 590.01 162.19V110.55C591.22 105.95 593.65 101.88 597.28 98.37C600.92 94.86 605.52 93.1 611.1 93.1C616.68 93.1 621.4 95.04 624.56 98.92C627.71 102.8 629.29 109.23 629.29 118.19V162.56C629.29 166.69 630.8 170.08 633.84 172.74C636.87 175.41 640.69 176.74 645.3 176.74C649.91 176.74 653.72 175.47 656.76 172.92C659.79 170.37 661.31 167.16 661.31 163.28V110.91C662.52 106.06 664.88 101.88 668.4 98.36C671.92 94.84 676.58 93.09 682.4 93.09C688.22 93.09 692.7 95.03 695.86 98.91C699.01 102.79 700.59 109.22 700.59 118.18V162.55C700.59 166.68 702.1 170.07 705.14 172.73C708.17 175.4 711.99 176.73 716.6 176.73C721.21 176.73 725.02 175.46 728.06 172.91C731.09 170.36 732.61 167.15 732.61 163.27V114.17C732.61 96.71 728.67 83.98 720.79 75.98C712.91 67.98 702.18 63.98 688.6 63.98L688.57 64.01Z" fill="white"/>
<path d="M806 64.0101C795.57 64.0101 786.24 67.7701 778 75.2801V27.6401C778 23.5201 776.54 20.0701 773.64 17.2701C770.73 14.4901 766.97 13.0901 762.37 13.0901C757.52 13.0901 753.58 14.4901 750.55 17.2701C747.51 20.0601 746 23.4001 746 27.2701V162.56C746 166.69 747.57 170.08 750.73 172.74C753.88 175.41 757.76 176.74 762.37 176.74C770.13 176.74 775.1 173.34 777.28 166.56C784.79 173.35 794.01 176.74 804.92 176.74C821.41 176.74 834.5 171.59 844.2 161.28C853.89 150.98 858.75 137.22 858.75 120C858.75 102.78 853.96 89.1501 844.38 79.0901C834.8 69.0301 822.01 64.0001 806.01 64.0001L806 64.0101ZM820.37 139.47C815.88 144.69 809.88 147.29 802.37 147.29C794.86 147.29 789.21 144.69 784.73 139.47C780.24 134.26 778 127.78 778 120.01C778 112.24 780.24 105.59 784.73 100.74C789.21 95.8901 795.1 93.4701 802.37 93.4701C809.64 93.4701 815.88 95.9001 820.37 100.74C824.85 105.59 827.1 112.01 827.1 120.01C827.1 128.01 824.85 134.26 820.37 139.47Z" fill="white"/>
<path d="M938.56 65.1C935.65 64.37 932.62 64.01 929.47 64.01C924.38 64.01 919.53 65.46 914.92 68.37C910.31 71.28 906.67 74.8 904.01 78.92C903.52 75.28 901.88 72.19 899.1 69.65C896.31 67.1 892.74 65.83 888.37 65.83C883.52 65.83 879.58 67.23 876.55 70.01C873.51 72.8 872 76.14 872 80.01V161.47C872 165.6 873.57 168.99 876.73 171.65C879.88 174.32 883.76 175.65 888.37 175.65C892.73 175.65 896.43 174.25 899.46 171.47C902.49 168.69 904.01 165.23 904.01 161.11V124.74C904.74 112.86 906.92 104.98 910.56 101.1C914.2 97.22 918.8 95.28 924.38 95.28C927.53 95.28 930.68 95.64 933.84 96.37C938.2 97.34 942.02 96.19 945.3 92.91C948.58 89.63 950.21 85.45 950.21 80.36C950.21 76.72 949.12 73.51 946.94 70.72C944.76 67.94 941.97 66.05 938.57 65.08L938.56 65.1Z" fill="white"/>
<path d="M981.55 65.8201C976.7 65.8201 972.76 67.2201 969.73 70.0001C966.7 72.7901 965.18 76.1301 965.18 80.0001V162.56C965.18 166.69 966.75 170.08 969.91 172.74C973.06 175.41 976.94 176.74 981.55 176.74C985.91 176.74 989.61 175.34 992.64 172.56C995.67 169.78 997.19 166.32 997.19 162.19V80.3601C997.19 76.2401 995.79 72.7901 993.01 69.9901C990.22 67.2101 986.4 65.8101 981.55 65.8101V65.8201Z" fill="white"/>
<path d="M981.55 13.0901C976.46 13.0901 972.09 14.7901 968.46 18.1801C964.82 21.5801 963 25.5801 963 30.1801C963 35.2701 964.82 39.4501 968.46 42.7301C972.1 46.0001 976.46 47.6401 981.55 47.6401C986.64 47.6401 990.58 46.0001 994.1 42.7301C997.61 39.4601 999.37 35.2701 999.37 30.1801C999.37 25.5801 997.61 21.5801 994.1 18.1801C990.58 14.7901 986.4 13.0901 981.55 13.0901Z" fill="white"/>
<path d="M1108.37 13.0901C1103.76 13.0901 1100 14.4901 1097.1 17.2701C1094.19 20.0601 1092.74 23.5201 1092.74 27.6401V75.2801C1084.49 67.7701 1075.16 64.0101 1064.74 64.0101C1048.74 64.0101 1035.95 69.0401 1026.37 79.1001C1016.79 89.1601 1012 102.8 1012 120.01C1012 137.22 1016.91 150.99 1026.73 161.29C1036.55 171.6 1049.58 176.75 1065.83 176.75C1076.74 176.75 1085.95 173.35 1093.47 166.57C1095.65 173.36 1100.62 176.75 1108.38 176.75C1113.23 176.75 1117.17 175.41 1120.2 172.75C1123.23 170.08 1124.75 166.69 1124.75 162.57V27.2801C1124.75 23.4001 1123.23 20.0701 1120.2 17.2801C1117.17 14.5001 1113.23 13.1001 1108.38 13.1001L1108.37 13.0901ZM1086 139.47C1081.51 144.69 1075.63 147.29 1068.36 147.29C1061.09 147.29 1054.84 144.69 1050.36 139.47C1045.87 134.26 1043.63 127.78 1043.63 120.01C1043.63 112.24 1045.87 105.59 1050.36 100.74C1054.84 95.8901 1060.84 93.4701 1068.36 93.4701C1075.88 93.4701 1081.51 95.9001 1086 100.74C1090.48 105.59 1092.73 112.01 1092.73 120.01C1092.73 128.01 1090.49 134.26 1086 139.47Z" fill="white"/>
<path d="M1236.56 65.82C1232.44 65.82 1228.98 66.91 1226.2 69.09C1223.41 71.27 1221.65 74.06 1220.93 77.45C1212.44 68.48 1202.38 63.99 1190.74 63.99C1174.74 63.99 1161.95 69.02 1152.37 79.08C1142.79 89.14 1138 102.78 1138 119.99C1138 137.2 1142.91 150.97 1152.73 161.27C1162.55 171.58 1175.58 176.73 1191.83 176.73C1203.22 176.73 1212.8 172.97 1220.56 165.46V173.82C1220.56 180.6 1218.32 186.06 1213.83 190.19C1209.34 194.31 1202.49 196.37 1193.28 196.37C1189.15 196.37 1184.97 195.88 1180.73 194.91C1176.49 193.94 1172.42 192.36 1168.55 190.18C1166.12 188.72 1163.33 188 1160.18 188C1156.3 188 1152.91 189.51 1150 192.55C1147.09 195.58 1145.64 199.15 1145.64 203.28C1145.64 209.83 1148.55 214.67 1154.37 217.83C1159.46 220.5 1165.16 222.5 1171.46 223.83C1177.76 225.16 1184.31 225.83 1191.1 225.83C1210.49 225.83 1225.59 221.16 1236.38 211.83C1247.17 202.49 1252.56 190.07 1252.56 174.55V81.08C1252.56 76.72 1251.11 73.08 1248.2 70.17C1245.29 67.26 1241.41 65.81 1236.56 65.81V65.82ZM1212.01 139.47C1207.52 144.69 1201.64 147.29 1194.37 147.29C1187.1 147.29 1180.85 144.69 1176.37 139.47C1171.88 134.26 1169.64 127.78 1169.64 120.01C1169.64 112.24 1171.88 105.59 1176.37 100.74C1180.85 95.89 1186.85 93.47 1194.37 93.47C1201.89 93.47 1207.52 95.9 1212.01 100.74C1216.49 105.59 1218.74 112.01 1218.74 120.01C1218.74 128.01 1216.5 134.26 1212.01 139.47Z" fill="white"/>
<path d="M1362.02 138.92C1359.35 138.92 1356.8 139.77 1354.38 141.47C1350.74 144.14 1346.5 146.14 1341.65 147.47C1336.8 148.81 1331.95 149.47 1327.1 149.47C1319.34 149.47 1312.37 147.83 1306.19 144.56C1300.01 141.29 1296.92 136.87 1296.92 131.29C1296.92 128.87 1297.89 127.65 1299.83 127.65H1360.2C1371.35 127.65 1376.93 121.35 1376.93 108.74C1376.93 101.23 1374.99 94.07 1371.11 87.28C1367.23 80.5 1361.41 74.91 1353.65 70.55C1345.89 66.19 1336.07 64 1324.19 64C1307.46 64 1293.58 69.09 1282.55 79.27C1271.51 89.45 1266 103.52 1266 121.46C1266 139.4 1271.64 152.19 1282.91 162.01C1294.18 171.83 1308.06 176.74 1324.55 176.74C1332.55 176.74 1340.73 175.65 1349.1 173.47C1357.47 171.29 1363.83 168.38 1368.19 164.74C1372.79 160.86 1375.1 156.74 1375.1 152.37C1375.1 148.73 1373.83 145.59 1371.28 142.91C1368.73 140.24 1365.64 138.91 1362.01 138.91L1362.02 138.92ZM1304.37 94.01C1309.1 90.74 1315.22 89.1 1322.74 89.1C1329.77 89.1 1335.53 90.62 1340.02 93.65C1344.5 96.68 1346.75 100.01 1346.75 103.65C1346.75 105.11 1346.32 105.96 1345.48 106.2C1344.63 106.44 1343.96 106.56 1343.48 106.56H1300.2C1298.26 106.56 1297.29 105.71 1297.29 104.01C1297.29 100.62 1299.65 97.28 1304.38 94.01H1304.37Z" fill="white"/>
<path d="M107.99 138.21L67.98 171.49V233.08L124.36 186.19H234.09L274.09 152.91V91.3201L217.72 138.21H107.99Z" fill="white"/>
<path d="M202.19 114L242.21 80.73V21.83C242.21 21.83 223.65 3.27 220.36 0C211.46 7.42 168.74 42.94 168.74 42.94H59L0 92.01L0.410004 165.34L25.79 190.72L27.17 189.57L43.65 175.77V154.5L92.46 114H202.2H202.19ZM25.78 110.55V184.9L4.5 163.64L4.10001 93.9L60.47 47.03H170.21L171.35 46.08L220.11 5.53L239.03 24.45L185.81 68.72H76.09L25.78 110.54V110.55Z" fill="white"/>
</svg>
